<mxfile host="Electron" modified="2024-03-31T09:41:19.586Z" agent="Mozilla/5.0 (Windows NT 10.0; Win64; x64) AppleWebKit/537.36 (KHTML, like Gecko) draw.io/23.1.5 Chrome/120.0.6099.109 Electron/28.1.0 Safari/537.36" etag="rwsraJxi44-Sp2dCdGww" version="23.1.5" type="device">
  <diagram id="C5RBs43oDa-KdzZeNtuy" name="Page-1">
    <mxGraphModel dx="1434" dy="844" grid="1" gridSize="10" guides="1" tooltips="1" connect="1" arrows="1" fold="1" page="1" pageScale="1" pageWidth="827" pageHeight="1169" math="0" shadow="0">
      <root>
        <mxCell id="WIyWlLk6GJQsqaUBKTNV-0" />
        <mxCell id="WIyWlLk6GJQsqaUBKTNV-1" parent="WIyWlLk6GJQsqaUBKTNV-0" />
        <mxCell id="8hWymS6KVQaurY-RgzPZ-32" value="" style="group" parent="WIyWlLk6GJQsqaUBKTNV-1" vertex="1" connectable="0">
          <mxGeometry x="35" y="1114" width="680" height="640" as="geometry" />
        </mxCell>
        <mxCell id="8hWymS6KVQaurY-RgzPZ-31" value="静态工具类" style="verticalAlign=top;align=left;spacingTop=8;spacingLeft=2;spacingRight=12;shape=cube;size=0;direction=south;fontStyle=0;html=1;whiteSpace=wrap;dashed=1;" parent="8hWymS6KVQaurY-RgzPZ-32" vertex="1">
          <mxGeometry width="680" height="640" as="geometry" />
        </mxCell>
        <mxCell id="Bk6qHILm4hEyCHsgAZPW-30" value="&lt;span style=&quot;font-weight: normal;&quot;&gt;Tools&lt;/span&gt;" style="swimlane;fontStyle=1;align=center;verticalAlign=top;childLayout=stackLayout;horizontal=1;startSize=26;horizontalStack=0;resizeParent=1;resizeParentMax=0;resizeLast=0;collapsible=1;marginBottom=0;whiteSpace=wrap;html=1;" parent="8hWymS6KVQaurY-RgzPZ-32" vertex="1">
          <mxGeometry x="260" y="60" width="180" height="450" as="geometry" />
        </mxCell>
        <mxCell id="Bk6qHILm4hEyCHsgAZPW-31" value="+ field: type" style="text;strokeColor=none;fillColor=none;align=left;verticalAlign=top;spacingLeft=4;spacingRight=4;overflow=hidden;rotatable=0;points=[[0,0.5],[1,0.5]];portConstraint=eastwest;whiteSpace=wrap;html=1;" parent="Bk6qHILm4hEyCHsgAZPW-30" vertex="1">
          <mxGeometry y="26" width="180" height="26" as="geometry" />
        </mxCell>
        <mxCell id="Bk6qHILm4hEyCHsgAZPW-32" value="" style="line;strokeWidth=1;fillColor=none;align=left;verticalAlign=middle;spacingTop=-1;spacingLeft=3;spacingRight=3;rotatable=0;labelPosition=right;points=[];portConstraint=eastwest;strokeColor=inherit;" parent="Bk6qHILm4hEyCHsgAZPW-30" vertex="1">
          <mxGeometry y="52" width="180" height="8" as="geometry" />
        </mxCell>
        <mxCell id="Bk6qHILm4hEyCHsgAZPW-33" value="+&amp;nbsp;SettingToJson(object)" style="text;strokeColor=none;fillColor=none;align=left;verticalAlign=top;spacingLeft=4;spacingRight=4;overflow=hidden;rotatable=0;points=[[0,0.5],[1,0.5]];portConstraint=eastwest;whiteSpace=wrap;html=1;" parent="Bk6qHILm4hEyCHsgAZPW-30" vertex="1">
          <mxGeometry y="60" width="180" height="26" as="geometry" />
        </mxCell>
        <mxCell id="8hWymS6KVQaurY-RgzPZ-62" value="+&amp;nbsp;JsonToSetting(string)" style="text;strokeColor=none;fillColor=none;align=left;verticalAlign=top;spacingLeft=4;spacingRight=4;overflow=hidden;rotatable=0;points=[[0,0.5],[1,0.5]];portConstraint=eastwest;whiteSpace=wrap;html=1;" parent="Bk6qHILm4hEyCHsgAZPW-30" vertex="1">
          <mxGeometry y="86" width="180" height="26" as="geometry" />
        </mxCell>
        <mxCell id="8hWymS6KVQaurY-RgzPZ-63" value="+&amp;nbsp;JsonToWallpaper(string)" style="text;strokeColor=none;fillColor=none;align=left;verticalAlign=top;spacingLeft=4;spacingRight=4;overflow=hidden;rotatable=0;points=[[0,0.5],[1,0.5]];portConstraint=eastwest;whiteSpace=wrap;html=1;" parent="Bk6qHILm4hEyCHsgAZPW-30" vertex="1">
          <mxGeometry y="112" width="180" height="26" as="geometry" />
        </mxCell>
        <mxCell id="8hWymS6KVQaurY-RgzPZ-64" value="+&amp;nbsp;LoadWallpaperValue(string)" style="text;strokeColor=none;fillColor=none;align=left;verticalAlign=top;spacingLeft=4;spacingRight=4;overflow=hidden;rotatable=0;points=[[0,0.5],[1,0.5]];portConstraint=eastwest;whiteSpace=wrap;html=1;" parent="Bk6qHILm4hEyCHsgAZPW-30" vertex="1">
          <mxGeometry y="138" width="180" height="26" as="geometry" />
        </mxCell>
        <mxCell id="8hWymS6KVQaurY-RgzPZ-65" value="+&amp;nbsp;ReadFile(string)" style="text;strokeColor=none;fillColor=none;align=left;verticalAlign=top;spacingLeft=4;spacingRight=4;overflow=hidden;rotatable=0;points=[[0,0.5],[1,0.5]];portConstraint=eastwest;whiteSpace=wrap;html=1;" parent="Bk6qHILm4hEyCHsgAZPW-30" vertex="1">
          <mxGeometry y="164" width="180" height="26" as="geometry" />
        </mxCell>
        <mxCell id="8hWymS6KVQaurY-RgzPZ-66" value="+&amp;nbsp;LoadImage(string, int)" style="text;strokeColor=none;fillColor=none;align=left;verticalAlign=top;spacingLeft=4;spacingRight=4;overflow=hidden;rotatable=0;points=[[0,0.5],[1,0.5]];portConstraint=eastwest;whiteSpace=wrap;html=1;" parent="Bk6qHILm4hEyCHsgAZPW-30" vertex="1">
          <mxGeometry y="190" width="180" height="26" as="geometry" />
        </mxCell>
        <mxCell id="8hWymS6KVQaurY-RgzPZ-67" value="+&amp;nbsp;WriteFile(string, string)" style="text;strokeColor=none;fillColor=none;align=left;verticalAlign=top;spacingLeft=4;spacingRight=4;overflow=hidden;rotatable=0;points=[[0,0.5],[1,0.5]];portConstraint=eastwest;whiteSpace=wrap;html=1;" parent="Bk6qHILm4hEyCHsgAZPW-30" vertex="1">
          <mxGeometry y="216" width="180" height="26" as="geometry" />
        </mxCell>
        <mxCell id="8hWymS6KVQaurY-RgzPZ-68" value="+&amp;nbsp;GetDirectory(string)" style="text;strokeColor=none;fillColor=none;align=left;verticalAlign=top;spacingLeft=4;spacingRight=4;overflow=hidden;rotatable=0;points=[[0,0.5],[1,0.5]];portConstraint=eastwest;whiteSpace=wrap;html=1;" parent="Bk6qHILm4hEyCHsgAZPW-30" vertex="1">
          <mxGeometry y="242" width="180" height="26" as="geometry" />
        </mxCell>
        <mxCell id="8hWymS6KVQaurY-RgzPZ-69" value="+&amp;nbsp;UpdateSelectIndexList(...)" style="text;strokeColor=none;fillColor=none;align=left;verticalAlign=top;spacingLeft=4;spacingRight=4;overflow=hidden;rotatable=0;points=[[0,0.5],[1,0.5]];portConstraint=eastwest;whiteSpace=wrap;html=1;" parent="Bk6qHILm4hEyCHsgAZPW-30" vertex="1">
          <mxGeometry y="268" width="180" height="26" as="geometry" />
        </mxCell>
        <mxCell id="8hWymS6KVQaurY-RgzPZ-70" value="+&amp;nbsp;UpdateSelectRange(...)" style="text;strokeColor=none;fillColor=none;align=left;verticalAlign=top;spacingLeft=4;spacingRight=4;overflow=hidden;rotatable=0;points=[[0,0.5],[1,0.5]];portConstraint=eastwest;whiteSpace=wrap;html=1;" parent="Bk6qHILm4hEyCHsgAZPW-30" vertex="1">
          <mxGeometry y="294" width="180" height="26" as="geometry" />
        </mxCell>
        <mxCell id="8hWymS6KVQaurY-RgzPZ-71" value="+&amp;nbsp;DataGridViewSelectAll(...)" style="text;strokeColor=none;fillColor=none;align=left;verticalAlign=top;spacingLeft=4;spacingRight=4;overflow=hidden;rotatable=0;points=[[0,0.5],[1,0.5]];portConstraint=eastwest;whiteSpace=wrap;html=1;" parent="Bk6qHILm4hEyCHsgAZPW-30" vertex="1">
          <mxGeometry y="320" width="180" height="26" as="geometry" />
        </mxCell>
        <mxCell id="8hWymS6KVQaurY-RgzPZ-72" value="+&amp;nbsp;GetDirSize(float)" style="text;strokeColor=none;fillColor=none;align=left;verticalAlign=top;spacingLeft=4;spacingRight=4;overflow=hidden;rotatable=0;points=[[0,0.5],[1,0.5]];portConstraint=eastwest;whiteSpace=wrap;html=1;" parent="Bk6qHILm4hEyCHsgAZPW-30" vertex="1">
          <mxGeometry y="346" width="180" height="26" as="geometry" />
        </mxCell>
        <mxCell id="8hWymS6KVQaurY-RgzPZ-73" value="+&amp;nbsp;ShowAskDialog(...)" style="text;strokeColor=none;fillColor=none;align=left;verticalAlign=top;spacingLeft=4;spacingRight=4;overflow=hidden;rotatable=0;points=[[0,0.5],[1,0.5]];portConstraint=eastwest;whiteSpace=wrap;html=1;" parent="Bk6qHILm4hEyCHsgAZPW-30" vertex="1">
          <mxGeometry y="372" width="180" height="26" as="geometry" />
        </mxCell>
        <mxCell id="8hWymS6KVQaurY-RgzPZ-74" value="+&amp;nbsp;ShowAskWarningDialog(...)" style="text;strokeColor=none;fillColor=none;align=left;verticalAlign=top;spacingLeft=4;spacingRight=4;overflow=hidden;rotatable=0;points=[[0,0.5],[1,0.5]];portConstraint=eastwest;whiteSpace=wrap;html=1;" parent="Bk6qHILm4hEyCHsgAZPW-30" vertex="1">
          <mxGeometry y="398" width="180" height="26" as="geometry" />
        </mxCell>
        <mxCell id="8hWymS6KVQaurY-RgzPZ-75" value="+&amp;nbsp;RunCMD(string)" style="text;strokeColor=none;fillColor=none;align=left;verticalAlign=top;spacingLeft=4;spacingRight=4;overflow=hidden;rotatable=0;points=[[0,0.5],[1,0.5]];portConstraint=eastwest;whiteSpace=wrap;html=1;" parent="Bk6qHILm4hEyCHsgAZPW-30" vertex="1">
          <mxGeometry y="424" width="180" height="26" as="geometry" />
        </mxCell>
        <mxCell id="Bk6qHILm4hEyCHsgAZPW-45" value="&lt;span style=&quot;font-weight: normal;&quot;&gt;Contentrating&lt;/span&gt;" style="swimlane;fontStyle=1;align=center;verticalAlign=top;childLayout=stackLayout;horizontal=1;startSize=26;horizontalStack=0;resizeParent=1;resizeParentMax=0;resizeLast=0;collapsible=1;marginBottom=0;whiteSpace=wrap;html=1;" parent="8hWymS6KVQaurY-RgzPZ-32" vertex="1">
          <mxGeometry x="485" y="60" width="160" height="104" as="geometry" />
        </mxCell>
        <mxCell id="Bk6qHILm4hEyCHsgAZPW-46" value="+&amp;nbsp;Everyone:string" style="text;strokeColor=none;fillColor=none;align=left;verticalAlign=top;spacingLeft=4;spacingRight=4;overflow=hidden;rotatable=0;points=[[0,0.5],[1,0.5]];portConstraint=eastwest;whiteSpace=wrap;html=1;" parent="Bk6qHILm4hEyCHsgAZPW-45" vertex="1">
          <mxGeometry y="26" width="160" height="26" as="geometry" />
        </mxCell>
        <mxCell id="Bk6qHILm4hEyCHsgAZPW-48" value="+&amp;nbsp;Questionable:string" style="text;strokeColor=none;fillColor=none;align=left;verticalAlign=top;spacingLeft=4;spacingRight=4;overflow=hidden;rotatable=0;points=[[0,0.5],[1,0.5]];portConstraint=eastwest;whiteSpace=wrap;html=1;" parent="Bk6qHILm4hEyCHsgAZPW-45" vertex="1">
          <mxGeometry y="52" width="160" height="26" as="geometry" />
        </mxCell>
        <mxCell id="Bk6qHILm4hEyCHsgAZPW-49" value="+&amp;nbsp;Mature:string" style="text;strokeColor=none;fillColor=none;align=left;verticalAlign=top;spacingLeft=4;spacingRight=4;overflow=hidden;rotatable=0;points=[[0,0.5],[1,0.5]];portConstraint=eastwest;whiteSpace=wrap;html=1;" parent="Bk6qHILm4hEyCHsgAZPW-45" vertex="1">
          <mxGeometry y="78" width="160" height="26" as="geometry" />
        </mxCell>
        <mxCell id="8hWymS6KVQaurY-RgzPZ-4" value="Use" style="endArrow=open;endSize=12;dashed=1;html=1;rounded=0;" parent="8hWymS6KVQaurY-RgzPZ-32" source="Bk6qHILm4hEyCHsgAZPW-30" target="Bk6qHILm4hEyCHsgAZPW-45" edge="1">
          <mxGeometry width="160" relative="1" as="geometry">
            <mxPoint x="70" y="30" as="sourcePoint" />
            <mxPoint x="230" y="30" as="targetPoint" />
          </mxGeometry>
        </mxCell>
        <mxCell id="8hWymS6KVQaurY-RgzPZ-40" value="&lt;span style=&quot;border-color: var(--border-color);&quot;&gt;(&lt;/span&gt;&lt;span style=&quot;border-color: var(--border-color); background-color: initial;&quot;&gt;enum)&amp;nbsp;&lt;span style=&quot;background-color: initial; border-color: var(--border-color);&quot;&gt;VieweUpdateState&lt;/span&gt;&lt;br&gt;&lt;/span&gt;" style="swimlane;fontStyle=0;childLayout=stackLayout;horizontal=1;startSize=26;fillColor=none;horizontalStack=0;resizeParent=1;resizeParentMax=0;resizeLast=0;collapsible=1;marginBottom=0;whiteSpace=wrap;html=1;" parent="8hWymS6KVQaurY-RgzPZ-32" vertex="1">
          <mxGeometry x="30" y="60" width="200" height="190" as="geometry" />
        </mxCell>
        <mxCell id="8hWymS6KVQaurY-RgzPZ-41" value="// 等待重新加载&lt;br&gt;+&amp;nbsp;WaitingForReload" style="text;strokeColor=none;fillColor=none;align=left;verticalAlign=top;spacingLeft=4;spacingRight=4;overflow=hidden;rotatable=0;points=[[0,0.5],[1,0.5]];portConstraint=eastwest;whiteSpace=wrap;html=1;" parent="8hWymS6KVQaurY-RgzPZ-40" vertex="1">
          <mxGeometry y="26" width="200" height="44" as="geometry" />
        </mxCell>
        <mxCell id="8hWymS6KVQaurY-RgzPZ-42" value="// 等待更新页面&lt;br&gt;+&amp;nbsp;WaitingForUpdateView" style="text;strokeColor=none;fillColor=none;align=left;verticalAlign=top;spacingLeft=4;spacingRight=4;overflow=hidden;rotatable=0;points=[[0,0.5],[1,0.5]];portConstraint=eastwest;whiteSpace=wrap;html=1;" parent="8hWymS6KVQaurY-RgzPZ-40" vertex="1">
          <mxGeometry y="70" width="200" height="40" as="geometry" />
        </mxCell>
        <mxCell id="8hWymS6KVQaurY-RgzPZ-43" value="// 更新页面中&lt;br&gt;+&amp;nbsp;IsUpdating" style="text;strokeColor=none;fillColor=none;align=left;verticalAlign=top;spacingLeft=4;spacingRight=4;overflow=hidden;rotatable=0;points=[[0,0.5],[1,0.5]];portConstraint=eastwest;whiteSpace=wrap;html=1;" parent="8hWymS6KVQaurY-RgzPZ-40" vertex="1">
          <mxGeometry y="110" width="200" height="40" as="geometry" />
        </mxCell>
        <mxCell id="8hWymS6KVQaurY-RgzPZ-44" value="// 已更新&lt;br&gt;+&amp;nbsp;Updated" style="text;strokeColor=none;fillColor=none;align=left;verticalAlign=top;spacingLeft=4;spacingRight=4;overflow=hidden;rotatable=0;points=[[0,0.5],[1,0.5]];portConstraint=eastwest;whiteSpace=wrap;html=1;" parent="8hWymS6KVQaurY-RgzPZ-40" vertex="1">
          <mxGeometry y="150" width="200" height="40" as="geometry" />
        </mxCell>
        <mxCell id="Bk6qHILm4hEyCHsgAZPW-50" value="&lt;span style=&quot;font-weight: normal;&quot;&gt;Wallpaper&lt;/span&gt;" style="swimlane;fontStyle=1;align=center;verticalAlign=top;childLayout=stackLayout;horizontal=1;startSize=26;horizontalStack=0;resizeParent=1;resizeParentMax=0;resizeLast=0;collapsible=1;marginBottom=0;whiteSpace=wrap;html=1;" parent="8hWymS6KVQaurY-RgzPZ-32" vertex="1">
          <mxGeometry x="485" y="220" width="160" height="264" as="geometry" />
        </mxCell>
        <mxCell id="Bk6qHILm4hEyCHsgAZPW-51" value="+ id:string" style="text;strokeColor=none;fillColor=none;align=left;verticalAlign=top;spacingLeft=4;spacingRight=4;overflow=hidden;rotatable=0;points=[[0,0.5],[1,0.5]];portConstraint=eastwest;whiteSpace=wrap;html=1;" parent="Bk6qHILm4hEyCHsgAZPW-50" vertex="1">
          <mxGeometry y="26" width="160" height="26" as="geometry" />
        </mxCell>
        <mxCell id="Bk6qHILm4hEyCHsgAZPW-54" value="+ title:string" style="text;strokeColor=none;fillColor=none;align=left;verticalAlign=top;spacingLeft=4;spacingRight=4;overflow=hidden;rotatable=0;points=[[0,0.5],[1,0.5]];portConstraint=eastwest;whiteSpace=wrap;html=1;" parent="Bk6qHILm4hEyCHsgAZPW-50" vertex="1">
          <mxGeometry y="52" width="160" height="26" as="geometry" />
        </mxCell>
        <mxCell id="Bk6qHILm4hEyCHsgAZPW-56" value="+ contentrating:string" style="text;strokeColor=none;fillColor=none;align=left;verticalAlign=top;spacingLeft=4;spacingRight=4;overflow=hidden;rotatable=0;points=[[0,0.5],[1,0.5]];portConstraint=eastwest;whiteSpace=wrap;html=1;" parent="Bk6qHILm4hEyCHsgAZPW-50" vertex="1">
          <mxGeometry y="78" width="160" height="26" as="geometry" />
        </mxCell>
        <mxCell id="Bk6qHILm4hEyCHsgAZPW-55" value="+ type:string" style="text;strokeColor=none;fillColor=none;align=left;verticalAlign=top;spacingLeft=4;spacingRight=4;overflow=hidden;rotatable=0;points=[[0,0.5],[1,0.5]];portConstraint=eastwest;whiteSpace=wrap;html=1;" parent="Bk6qHILm4hEyCHsgAZPW-50" vertex="1">
          <mxGeometry y="104" width="160" height="26" as="geometry" />
        </mxCell>
        <mxCell id="Bk6qHILm4hEyCHsgAZPW-59" value="+ previewFileName:string" style="text;strokeColor=none;fillColor=none;align=left;verticalAlign=top;spacingLeft=4;spacingRight=4;overflow=hidden;rotatable=0;points=[[0,0.5],[1,0.5]];portConstraint=eastwest;whiteSpace=wrap;html=1;" parent="Bk6qHILm4hEyCHsgAZPW-50" vertex="1">
          <mxGeometry y="130" width="160" height="30" as="geometry" />
        </mxCell>
        <mxCell id="Bk6qHILm4hEyCHsgAZPW-58" value="+ directoryPath:string" style="text;strokeColor=none;fillColor=none;align=left;verticalAlign=top;spacingLeft=4;spacingRight=4;overflow=hidden;rotatable=0;points=[[0,0.5],[1,0.5]];portConstraint=eastwest;whiteSpace=wrap;html=1;" parent="Bk6qHILm4hEyCHsgAZPW-50" vertex="1">
          <mxGeometry y="160" width="160" height="26" as="geometry" />
        </mxCell>
        <mxCell id="Bk6qHILm4hEyCHsgAZPW-57" value="+ dirSize:string" style="text;strokeColor=none;fillColor=none;align=left;verticalAlign=top;spacingLeft=4;spacingRight=4;overflow=hidden;rotatable=0;points=[[0,0.5],[1,0.5]];portConstraint=eastwest;whiteSpace=wrap;html=1;" parent="Bk6qHILm4hEyCHsgAZPW-50" vertex="1">
          <mxGeometry y="186" width="160" height="26" as="geometry" />
        </mxCell>
        <mxCell id="Bk6qHILm4hEyCHsgAZPW-60" value="+ previewImage:Bitmap" style="text;strokeColor=none;fillColor=none;align=left;verticalAlign=top;spacingLeft=4;spacingRight=4;overflow=hidden;rotatable=0;points=[[0,0.5],[1,0.5]];portConstraint=eastwest;whiteSpace=wrap;html=1;" parent="Bk6qHILm4hEyCHsgAZPW-50" vertex="1">
          <mxGeometry y="212" width="160" height="26" as="geometry" />
        </mxCell>
        <mxCell id="Bk6qHILm4hEyCHsgAZPW-61" value="+ lastWriteTime:DateTime" style="text;strokeColor=none;fillColor=none;align=left;verticalAlign=top;spacingLeft=4;spacingRight=4;overflow=hidden;rotatable=0;points=[[0,0.5],[1,0.5]];portConstraint=eastwest;whiteSpace=wrap;html=1;" parent="Bk6qHILm4hEyCHsgAZPW-50" vertex="1">
          <mxGeometry y="238" width="160" height="26" as="geometry" />
        </mxCell>
        <mxCell id="8hWymS6KVQaurY-RgzPZ-30" value="" style="group" parent="WIyWlLk6GJQsqaUBKTNV-1" vertex="1" connectable="0">
          <mxGeometry x="780" y="440" width="860" height="840" as="geometry" />
        </mxCell>
        <mxCell id="8hWymS6KVQaurY-RgzPZ-29" value="壁纸逻辑处理" style="verticalAlign=top;align=left;spacingTop=8;spacingLeft=2;spacingRight=12;shape=cube;size=0;direction=south;fontStyle=0;html=1;whiteSpace=wrap;dashed=1;" parent="8hWymS6KVQaurY-RgzPZ-30" vertex="1">
          <mxGeometry width="860" height="840" as="geometry" />
        </mxCell>
        <object label="WallpaperManager" Init="" id="zkfFHV4jXpPFQw0GAbJ--6">
          <mxCell style="swimlane;fontStyle=1;align=center;verticalAlign=top;childLayout=stackLayout;horizontal=1;startSize=26;horizontalStack=0;resizeParent=1;resizeLast=0;collapsible=1;marginBottom=0;rounded=0;shadow=0;strokeWidth=1;" parent="8hWymS6KVQaurY-RgzPZ-30" vertex="1">
            <mxGeometry x="30" y="70" width="230" height="192" as="geometry">
              <mxRectangle x="130" y="380" width="160" height="26" as="alternateBounds" />
            </mxGeometry>
          </mxCell>
        </object>
        <mxCell id="8hWymS6KVQaurY-RgzPZ-6" value="+ storeLoader: WallpaperLoader" style="text;strokeColor=none;fillColor=none;align=left;verticalAlign=top;spacingLeft=4;spacingRight=4;overflow=hidden;rotatable=0;points=[[0,0.5],[1,0.5]];portConstraint=eastwest;whiteSpace=wrap;html=1;" parent="zkfFHV4jXpPFQw0GAbJ--6" vertex="1">
          <mxGeometry y="26" width="230" height="26" as="geometry" />
        </mxCell>
        <mxCell id="8hWymS6KVQaurY-RgzPZ-7" value="+ localBackupLoader: WallpaperLoader" style="text;strokeColor=none;fillColor=none;align=left;verticalAlign=top;spacingLeft=4;spacingRight=4;overflow=hidden;rotatable=0;points=[[0,0.5],[1,0.5]];portConstraint=eastwest;whiteSpace=wrap;html=1;" parent="zkfFHV4jXpPFQw0GAbJ--6" vertex="1">
          <mxGeometry y="52" width="230" height="28" as="geometry" />
        </mxCell>
        <mxCell id="8hWymS6KVQaurY-RgzPZ-8" value="+ backupLoader: WallpaperLoader" style="text;strokeColor=none;fillColor=none;align=left;verticalAlign=top;spacingLeft=4;spacingRight=4;overflow=hidden;rotatable=0;points=[[0,0.5],[1,0.5]];portConstraint=eastwest;whiteSpace=wrap;html=1;" parent="zkfFHV4jXpPFQw0GAbJ--6" vertex="1">
          <mxGeometry y="80" width="230" height="26" as="geometry" />
        </mxCell>
        <mxCell id="8hWymS6KVQaurY-RgzPZ-9" value="+ unpackLoader: WallpaperLoader" style="text;strokeColor=none;fillColor=none;align=left;verticalAlign=top;spacingLeft=4;spacingRight=4;overflow=hidden;rotatable=0;points=[[0,0.5],[1,0.5]];portConstraint=eastwest;whiteSpace=wrap;html=1;" parent="zkfFHV4jXpPFQw0GAbJ--6" vertex="1">
          <mxGeometry y="106" width="230" height="26" as="geometry" />
        </mxCell>
        <mxCell id="8hWymS6KVQaurY-RgzPZ-10" value="+ wallpaperChanger: WallpaperChanger" style="text;strokeColor=none;fillColor=none;align=left;verticalAlign=top;spacingLeft=4;spacingRight=4;overflow=hidden;rotatable=0;points=[[0,0.5],[1,0.5]];portConstraint=eastwest;whiteSpace=wrap;html=1;" parent="zkfFHV4jXpPFQw0GAbJ--6" vertex="1">
          <mxGeometry y="132" width="230" height="26" as="geometry" />
        </mxCell>
        <mxCell id="zkfFHV4jXpPFQw0GAbJ--9" value="" style="line;html=1;strokeWidth=1;align=left;verticalAlign=middle;spacingTop=-1;spacingLeft=3;spacingRight=3;rotatable=0;labelPosition=right;points=[];portConstraint=eastwest;" parent="zkfFHV4jXpPFQw0GAbJ--6" vertex="1">
          <mxGeometry y="158" width="230" height="8" as="geometry" />
        </mxCell>
        <mxCell id="Bk6qHILm4hEyCHsgAZPW-12" value="+ Init()" style="text;strokeColor=none;fillColor=none;align=left;verticalAlign=top;spacingLeft=4;spacingRight=4;overflow=hidden;rotatable=0;points=[[0,0.5],[1,0.5]];portConstraint=eastwest;whiteSpace=wrap;html=1;" parent="zkfFHV4jXpPFQw0GAbJ--6" vertex="1">
          <mxGeometry y="166" width="230" height="26" as="geometry" />
        </mxCell>
        <mxCell id="Bk6qHILm4hEyCHsgAZPW-62" value="&lt;span style=&quot;font-weight: normal;&quot;&gt;WallpaperLoader&lt;/span&gt;" style="swimlane;fontStyle=1;align=center;verticalAlign=top;childLayout=stackLayout;horizontal=1;startSize=26;horizontalStack=0;resizeParent=1;resizeParentMax=0;resizeLast=0;collapsible=1;marginBottom=0;whiteSpace=wrap;html=1;" parent="8hWymS6KVQaurY-RgzPZ-30" vertex="1">
          <mxGeometry x="370" y="50" width="190" height="380" as="geometry">
            <mxRectangle x="530" y="226" width="140" height="30" as="alternateBounds" />
          </mxGeometry>
        </mxCell>
        <mxCell id="Bk6qHILm4hEyCHsgAZPW-74" value="// 加载目录&lt;br&gt;+ loadPath:string" style="text;strokeColor=none;fillColor=none;align=left;verticalAlign=top;spacingLeft=4;spacingRight=4;overflow=hidden;rotatable=0;points=[[0,0.5],[1,0.5]];portConstraint=eastwest;whiteSpace=wrap;html=1;" parent="Bk6qHILm4hEyCHsgAZPW-62" vertex="1">
          <mxGeometry y="26" width="190" height="34" as="geometry" />
        </mxCell>
        <mxCell id="Bk6qHILm4hEyCHsgAZPW-82" value="+&amp;nbsp;isLoading:bool" style="text;strokeColor=none;fillColor=none;align=left;verticalAlign=top;spacingLeft=4;spacingRight=4;overflow=hidden;rotatable=0;points=[[0,0.5],[1,0.5]];portConstraint=eastwest;whiteSpace=wrap;html=1;" parent="Bk6qHILm4hEyCHsgAZPW-62" vertex="1">
          <mxGeometry y="60" width="190" height="26" as="geometry" />
        </mxCell>
        <mxCell id="Bk6qHILm4hEyCHsgAZPW-83" value="+&amp;nbsp;isLoaded:bool" style="text;strokeColor=none;fillColor=none;align=left;verticalAlign=top;spacingLeft=4;spacingRight=4;overflow=hidden;rotatable=0;points=[[0,0.5],[1,0.5]];portConstraint=eastwest;whiteSpace=wrap;html=1;" parent="Bk6qHILm4hEyCHsgAZPW-62" vertex="1">
          <mxGeometry y="86" width="190" height="26" as="geometry" />
        </mxCell>
        <mxCell id="Bk6qHILm4hEyCHsgAZPW-84" value="+&amp;nbsp;loadingProgress:int" style="text;strokeColor=none;fillColor=none;align=left;verticalAlign=top;spacingLeft=4;spacingRight=4;overflow=hidden;rotatable=0;points=[[0,0.5],[1,0.5]];portConstraint=eastwest;whiteSpace=wrap;html=1;" parent="Bk6qHILm4hEyCHsgAZPW-62" vertex="1">
          <mxGeometry y="112" width="190" height="26" as="geometry" />
        </mxCell>
        <mxCell id="Bk6qHILm4hEyCHsgAZPW-85" value="+&amp;nbsp;wallpaperList:List&amp;lt;Wallpaper&amp;gt;" style="text;strokeColor=none;fillColor=none;align=left;verticalAlign=top;spacingLeft=4;spacingRight=4;overflow=hidden;rotatable=0;points=[[0,0.5],[1,0.5]];portConstraint=eastwest;whiteSpace=wrap;html=1;" parent="Bk6qHILm4hEyCHsgAZPW-62" vertex="1">
          <mxGeometry y="138" width="190" height="26" as="geometry" />
        </mxCell>
        <mxCell id="Bk6qHILm4hEyCHsgAZPW-64" value="" style="line;strokeWidth=1;fillColor=none;align=left;verticalAlign=middle;spacingTop=-1;spacingLeft=3;spacingRight=3;rotatable=0;labelPosition=right;points=[];portConstraint=eastwest;strokeColor=inherit;" parent="Bk6qHILm4hEyCHsgAZPW-62" vertex="1">
          <mxGeometry y="164" width="190" height="8" as="geometry" />
        </mxCell>
        <mxCell id="Bk6qHILm4hEyCHsgAZPW-65" value="+ Init(string)" style="text;strokeColor=none;fillColor=none;align=left;verticalAlign=top;spacingLeft=4;spacingRight=4;overflow=hidden;rotatable=0;points=[[0,0.5],[1,0.5]];portConstraint=eastwest;whiteSpace=wrap;html=1;" parent="Bk6qHILm4hEyCHsgAZPW-62" vertex="1">
          <mxGeometry y="172" width="190" height="26" as="geometry" />
        </mxCell>
        <mxCell id="Bk6qHILm4hEyCHsgAZPW-87" value="// 准备重新加载&lt;br&gt;+&amp;nbsp;WaitForReload()" style="text;strokeColor=none;fillColor=none;align=left;verticalAlign=top;spacingLeft=4;spacingRight=4;overflow=hidden;rotatable=0;points=[[0,0.5],[1,0.5]];portConstraint=eastwest;whiteSpace=wrap;html=1;" parent="Bk6qHILm4hEyCHsgAZPW-62" vertex="1">
          <mxGeometry y="198" width="190" height="42" as="geometry" />
        </mxCell>
        <mxCell id="Bk6qHILm4hEyCHsgAZPW-88" value="+ Load()" style="text;strokeColor=none;fillColor=none;align=left;verticalAlign=top;spacingLeft=4;spacingRight=4;overflow=hidden;rotatable=0;points=[[0,0.5],[1,0.5]];portConstraint=eastwest;whiteSpace=wrap;html=1;" parent="Bk6qHILm4hEyCHsgAZPW-62" vertex="1">
          <mxGeometry y="240" width="190" height="26" as="geometry" />
        </mxCell>
        <mxCell id="Bk6qHILm4hEyCHsgAZPW-89" value="// 移除壁纸&lt;br&gt;+ Remove(List&amp;lt;Wallpaper&amp;gt;)" style="text;strokeColor=none;fillColor=none;align=left;verticalAlign=top;spacingLeft=4;spacingRight=4;overflow=hidden;rotatable=0;points=[[0,0.5],[1,0.5]];portConstraint=eastwest;whiteSpace=wrap;html=1;" parent="Bk6qHILm4hEyCHsgAZPW-62" vertex="1">
          <mxGeometry y="266" width="190" height="44" as="geometry" />
        </mxCell>
        <mxCell id="Bk6qHILm4hEyCHsgAZPW-90" value="// 获取展示壁纸列表(参数为筛选开关)&lt;br&gt;+ GetViewList(bool, bool, bool):List&amp;lt;Wallpaper&amp;gt;" style="text;strokeColor=none;fillColor=none;align=left;verticalAlign=top;spacingLeft=4;spacingRight=4;overflow=hidden;rotatable=0;points=[[0,0.5],[1,0.5]];portConstraint=eastwest;whiteSpace=wrap;html=1;" parent="Bk6qHILm4hEyCHsgAZPW-62" vertex="1">
          <mxGeometry y="310" width="190" height="70" as="geometry" />
        </mxCell>
        <mxCell id="Bk6qHILm4hEyCHsgAZPW-66" value="1" style="endArrow=open;html=1;endSize=12;startArrow=diamondThin;startSize=14;startFill=0;edgeStyle=orthogonalEdgeStyle;align=left;verticalAlign=bottom;rounded=0;" parent="8hWymS6KVQaurY-RgzPZ-30" source="zkfFHV4jXpPFQw0GAbJ--6" target="Bk6qHILm4hEyCHsgAZPW-62" edge="1">
          <mxGeometry x="-1" y="3" relative="1" as="geometry">
            <mxPoint x="630" y="120" as="sourcePoint" />
            <mxPoint x="790" y="120" as="targetPoint" />
            <Array as="points">
              <mxPoint x="220" y="240" />
            </Array>
          </mxGeometry>
        </mxCell>
        <mxCell id="Bk6qHILm4hEyCHsgAZPW-67" value="&lt;span style=&quot;font-weight: normal;&quot;&gt;WallpaperChanger&lt;/span&gt;" style="swimlane;fontStyle=1;align=center;verticalAlign=top;childLayout=stackLayout;horizontal=1;startSize=26;horizontalStack=0;resizeParent=1;resizeParentMax=0;resizeLast=0;collapsible=1;marginBottom=0;whiteSpace=wrap;html=1;" parent="8hWymS6KVQaurY-RgzPZ-30" vertex="1">
          <mxGeometry x="325" y="600" width="280" height="218" as="geometry">
            <mxRectangle x="530" y="390" width="150" height="30" as="alternateBounds" />
          </mxGeometry>
        </mxCell>
        <mxCell id="Bk6qHILm4hEyCHsgAZPW-68" value="+ m_Loaders: WallpaperLoader[]" style="text;strokeColor=none;fillColor=none;align=left;verticalAlign=top;spacingLeft=4;spacingRight=4;overflow=hidden;rotatable=0;points=[[0,0.5],[1,0.5]];portConstraint=eastwest;whiteSpace=wrap;html=1;" parent="Bk6qHILm4hEyCHsgAZPW-67" vertex="1">
          <mxGeometry y="26" width="280" height="26" as="geometry" />
        </mxCell>
        <mxCell id="Bk6qHILm4hEyCHsgAZPW-69" value="" style="line;strokeWidth=1;fillColor=none;align=left;verticalAlign=middle;spacingTop=-1;spacingLeft=3;spacingRight=3;rotatable=0;labelPosition=right;points=[];portConstraint=eastwest;strokeColor=inherit;" parent="Bk6qHILm4hEyCHsgAZPW-67" vertex="1">
          <mxGeometry y="52" width="280" height="8" as="geometry" />
        </mxCell>
        <mxCell id="Bk6qHILm4hEyCHsgAZPW-70" value="- GetWallpaperDic: Dictionary&amp;lt;string, Wallpaper&amp;gt;" style="text;strokeColor=none;fillColor=none;align=left;verticalAlign=top;spacingLeft=4;spacingRight=4;overflow=hidden;rotatable=0;points=[[0,0.5],[1,0.5]];portConstraint=eastwest;whiteSpace=wrap;html=1;" parent="Bk6qHILm4hEyCHsgAZPW-67" vertex="1">
          <mxGeometry y="60" width="280" height="26" as="geometry" />
        </mxCell>
        <mxCell id="8hWymS6KVQaurY-RgzPZ-1" value="+ GetAddViewList(bool, bool, bool): List&amp;lt;Wallpaper&amp;gt;" style="text;strokeColor=none;fillColor=none;align=left;verticalAlign=top;spacingLeft=4;spacingRight=4;overflow=hidden;rotatable=0;points=[[0,0.5],[1,0.5]];portConstraint=eastwest;whiteSpace=wrap;html=1;" parent="Bk6qHILm4hEyCHsgAZPW-67" vertex="1">
          <mxGeometry y="86" width="280" height="44" as="geometry" />
        </mxCell>
        <mxCell id="8hWymS6KVQaurY-RgzPZ-2" value="+ GetChangedViewList(bool, bool, bool): List&amp;lt;Wallpaper&amp;gt;" style="text;strokeColor=none;fillColor=none;align=left;verticalAlign=top;spacingLeft=4;spacingRight=4;overflow=hidden;rotatable=0;points=[[0,0.5],[1,0.5]];portConstraint=eastwest;whiteSpace=wrap;html=1;" parent="Bk6qHILm4hEyCHsgAZPW-67" vertex="1">
          <mxGeometry y="130" width="280" height="44" as="geometry" />
        </mxCell>
        <mxCell id="8hWymS6KVQaurY-RgzPZ-3" value="+ GetDelViewList(bool, bool, bool): List&amp;lt;Wallpaper&amp;gt;" style="text;strokeColor=none;fillColor=none;align=left;verticalAlign=top;spacingLeft=4;spacingRight=4;overflow=hidden;rotatable=0;points=[[0,0.5],[1,0.5]];portConstraint=eastwest;whiteSpace=wrap;html=1;" parent="Bk6qHILm4hEyCHsgAZPW-67" vertex="1">
          <mxGeometry y="174" width="280" height="44" as="geometry" />
        </mxCell>
        <mxCell id="Bk6qHILm4hEyCHsgAZPW-71" value="Extends" style="endArrow=block;endSize=16;endFill=0;html=1;rounded=0;" parent="8hWymS6KVQaurY-RgzPZ-30" source="Bk6qHILm4hEyCHsgAZPW-67" target="Bk6qHILm4hEyCHsgAZPW-62" edge="1">
          <mxGeometry width="160" relative="1" as="geometry">
            <mxPoint x="550" y="150" as="sourcePoint" />
            <mxPoint x="710" y="150" as="targetPoint" />
            <Array as="points" />
          </mxGeometry>
        </mxCell>
        <mxCell id="Bk6qHILm4hEyCHsgAZPW-91" value="1" style="endArrow=open;html=1;endSize=12;startArrow=diamondThin;startSize=14;startFill=0;edgeStyle=orthogonalEdgeStyle;align=left;verticalAlign=bottom;rounded=0;" parent="8hWymS6KVQaurY-RgzPZ-30" source="Bk6qHILm4hEyCHsgAZPW-67" target="Bk6qHILm4hEyCHsgAZPW-62" edge="1">
          <mxGeometry x="-1" y="3" relative="1" as="geometry">
            <mxPoint x="700" y="-59" as="sourcePoint" />
            <mxPoint x="801" y="-59" as="targetPoint" />
            <Array as="points">
              <mxPoint x="410" y="540" />
              <mxPoint x="410" y="540" />
            </Array>
          </mxGeometry>
        </mxCell>
        <mxCell id="8hWymS6KVQaurY-RgzPZ-60" value="1" style="endArrow=open;html=1;endSize=12;startArrow=diamondThin;startSize=14;startFill=1;edgeStyle=orthogonalEdgeStyle;align=left;verticalAlign=bottom;rounded=0;jumpStyle=none;" parent="8hWymS6KVQaurY-RgzPZ-30" source="zkfFHV4jXpPFQw0GAbJ--6" target="Bk6qHILm4hEyCHsgAZPW-67" edge="1">
          <mxGeometry x="-1" y="3" relative="1" as="geometry">
            <mxPoint x="150" y="540" as="sourcePoint" />
            <mxPoint x="310" y="540" as="targetPoint" />
            <Array as="points">
              <mxPoint x="250" y="709" />
            </Array>
          </mxGeometry>
        </mxCell>
        <mxCell id="8hWymS6KVQaurY-RgzPZ-13" value="" style="group" parent="WIyWlLk6GJQsqaUBKTNV-1" vertex="1" connectable="0">
          <mxGeometry x="780" y="10" width="565" height="390" as="geometry" />
        </mxCell>
        <mxCell id="8hWymS6KVQaurY-RgzPZ-12" value="设置功能" style="verticalAlign=top;align=left;spacingTop=8;spacingLeft=2;spacingRight=12;shape=cube;size=0;direction=south;fontStyle=0;html=1;whiteSpace=wrap;dashed=1;" parent="8hWymS6KVQaurY-RgzPZ-13" vertex="1">
          <mxGeometry width="565" height="390" as="geometry" />
        </mxCell>
        <mxCell id="zkfFHV4jXpPFQw0GAbJ--13" value="SettingManager" style="swimlane;fontStyle=1;align=center;verticalAlign=top;childLayout=stackLayout;horizontal=1;startSize=26;horizontalStack=0;resizeParent=1;resizeLast=0;collapsible=1;marginBottom=0;rounded=0;shadow=0;strokeWidth=1;movable=1;resizable=1;rotatable=1;deletable=1;editable=1;locked=0;connectable=1;" parent="8hWymS6KVQaurY-RgzPZ-13" vertex="1">
          <mxGeometry x="40" y="120" width="160" height="190" as="geometry">
            <mxRectangle x="340" y="380" width="170" height="26" as="alternateBounds" />
          </mxGeometry>
        </mxCell>
        <mxCell id="Bk6qHILm4hEyCHsgAZPW-75" value="+ setting:Setting" style="text;strokeColor=none;fillColor=none;align=left;verticalAlign=top;spacingLeft=4;spacingRight=4;overflow=hidden;rotatable=0;points=[[0,0.5],[1,0.5]];portConstraint=eastwest;whiteSpace=wrap;html=1;" parent="zkfFHV4jXpPFQw0GAbJ--13" vertex="1">
          <mxGeometry y="26" width="160" height="26" as="geometry" />
        </mxCell>
        <mxCell id="zkfFHV4jXpPFQw0GAbJ--15" value="" style="line;html=1;strokeWidth=1;align=left;verticalAlign=middle;spacingTop=-1;spacingLeft=3;spacingRight=3;rotatable=0;labelPosition=right;points=[];portConstraint=eastwest;" parent="zkfFHV4jXpPFQw0GAbJ--13" vertex="1">
          <mxGeometry y="52" width="160" height="8" as="geometry" />
        </mxCell>
        <mxCell id="Bk6qHILm4hEyCHsgAZPW-13" value="+ Init()" style="text;strokeColor=none;fillColor=none;align=left;verticalAlign=top;spacingLeft=4;spacingRight=4;overflow=hidden;rotatable=0;points=[[0,0.5],[1,0.5]];portConstraint=eastwest;whiteSpace=wrap;html=1;" parent="zkfFHV4jXpPFQw0GAbJ--13" vertex="1">
          <mxGeometry y="60" width="160" height="26" as="geometry" />
        </mxCell>
        <mxCell id="Bk6qHILm4hEyCHsgAZPW-76" value="+ SaveSetting()" style="text;strokeColor=none;fillColor=none;align=left;verticalAlign=top;spacingLeft=4;spacingRight=4;overflow=hidden;rotatable=0;points=[[0,0.5],[1,0.5]];portConstraint=eastwest;whiteSpace=wrap;html=1;" parent="zkfFHV4jXpPFQw0GAbJ--13" vertex="1">
          <mxGeometry y="86" width="160" height="26" as="geometry" />
        </mxCell>
        <mxCell id="Bk6qHILm4hEyCHsgAZPW-77" value="+ LoadSetting()" style="text;strokeColor=none;fillColor=none;align=left;verticalAlign=top;spacingLeft=4;spacingRight=4;overflow=hidden;rotatable=0;points=[[0,0.5],[1,0.5]];portConstraint=eastwest;whiteSpace=wrap;html=1;" parent="zkfFHV4jXpPFQw0GAbJ--13" vertex="1">
          <mxGeometry y="112" width="160" height="26" as="geometry" />
        </mxCell>
        <mxCell id="Bk6qHILm4hEyCHsgAZPW-78" value="- InitSetting()" style="text;strokeColor=none;fillColor=none;align=left;verticalAlign=top;spacingLeft=4;spacingRight=4;overflow=hidden;rotatable=0;points=[[0,0.5],[1,0.5]];portConstraint=eastwest;whiteSpace=wrap;html=1;" parent="zkfFHV4jXpPFQw0GAbJ--13" vertex="1">
          <mxGeometry y="138" width="160" height="26" as="geometry" />
        </mxCell>
        <mxCell id="Bk6qHILm4hEyCHsgAZPW-79" value="- AfterSaveSetting()" style="text;strokeColor=none;fillColor=none;align=left;verticalAlign=top;spacingLeft=4;spacingRight=4;overflow=hidden;rotatable=0;points=[[0,0.5],[1,0.5]];portConstraint=eastwest;whiteSpace=wrap;html=1;" parent="zkfFHV4jXpPFQw0GAbJ--13" vertex="1">
          <mxGeometry y="164" width="160" height="26" as="geometry" />
        </mxCell>
        <mxCell id="Bk6qHILm4hEyCHsgAZPW-34" value="Setting" style="swimlane;fontStyle=0;align=center;verticalAlign=top;childLayout=stackLayout;horizontal=1;startSize=26;horizontalStack=0;resizeParent=1;resizeLast=0;collapsible=1;marginBottom=0;rounded=0;shadow=0;strokeWidth=1;" parent="8hWymS6KVQaurY-RgzPZ-13" vertex="1">
          <mxGeometry x="345" y="85" width="160" height="220" as="geometry">
            <mxRectangle x="340" y="380" width="170" height="26" as="alternateBounds" />
          </mxGeometry>
        </mxCell>
        <mxCell id="Bk6qHILm4hEyCHsgAZPW-38" value="// 壁纸存放目录&lt;br&gt;+ storePath:string" style="text;strokeColor=none;fillColor=none;align=left;verticalAlign=top;spacingLeft=4;spacingRight=4;overflow=hidden;rotatable=0;points=[[0,0.5],[1,0.5]];portConstraint=eastwest;whiteSpace=wrap;html=1;" parent="Bk6qHILm4hEyCHsgAZPW-34" vertex="1">
          <mxGeometry y="26" width="160" height="34" as="geometry" />
        </mxCell>
        <mxCell id="Bk6qHILm4hEyCHsgAZPW-40" value="// 本地壁纸备份目录&lt;br&gt;+ localBackupPath:string" style="text;strokeColor=none;fillColor=none;align=left;verticalAlign=top;spacingLeft=4;spacingRight=4;overflow=hidden;rotatable=0;points=[[0,0.5],[1,0.5]];portConstraint=eastwest;whiteSpace=wrap;html=1;" parent="Bk6qHILm4hEyCHsgAZPW-34" vertex="1">
          <mxGeometry y="60" width="160" height="40" as="geometry" />
        </mxCell>
        <mxCell id="Bk6qHILm4hEyCHsgAZPW-41" value="// 官方壁纸备份目录&lt;br&gt;+ backupPath:string" style="text;strokeColor=none;fillColor=none;align=left;verticalAlign=top;spacingLeft=4;spacingRight=4;overflow=hidden;rotatable=0;points=[[0,0.5],[1,0.5]];portConstraint=eastwest;whiteSpace=wrap;html=1;" parent="Bk6qHILm4hEyCHsgAZPW-34" vertex="1">
          <mxGeometry y="100" width="160" height="40" as="geometry" />
        </mxCell>
        <mxCell id="Bk6qHILm4hEyCHsgAZPW-42" value="// 壁纸导出目录&lt;br&gt;+ unpackPath:string" style="text;strokeColor=none;fillColor=none;align=left;verticalAlign=top;spacingLeft=4;spacingRight=4;overflow=hidden;rotatable=0;points=[[0,0.5],[1,0.5]];portConstraint=eastwest;whiteSpace=wrap;html=1;" parent="Bk6qHILm4hEyCHsgAZPW-34" vertex="1">
          <mxGeometry y="140" width="160" height="40" as="geometry" />
        </mxCell>
        <mxCell id="Bk6qHILm4hEyCHsgAZPW-43" value="// 用户电脑名称&lt;br&gt;+ userPCName:string" style="text;strokeColor=none;fillColor=none;align=left;verticalAlign=top;spacingLeft=4;spacingRight=4;overflow=hidden;rotatable=0;points=[[0,0.5],[1,0.5]];portConstraint=eastwest;whiteSpace=wrap;html=1;" parent="Bk6qHILm4hEyCHsgAZPW-34" vertex="1">
          <mxGeometry y="180" width="160" height="40" as="geometry" />
        </mxCell>
        <mxCell id="Bk6qHILm4hEyCHsgAZPW-44" value="1" style="endArrow=open;html=1;endSize=12;startArrow=diamondThin;startSize=14;startFill=0;edgeStyle=orthogonalEdgeStyle;align=left;verticalAlign=bottom;rounded=0;" parent="8hWymS6KVQaurY-RgzPZ-13" source="Bk6qHILm4hEyCHsgAZPW-75" target="Bk6qHILm4hEyCHsgAZPW-34" edge="1">
          <mxGeometry x="-1" y="3" relative="1" as="geometry">
            <mxPoint x="161" y="734" as="sourcePoint" />
            <mxPoint x="321" y="734" as="targetPoint" />
            <Array as="points">
              <mxPoint x="240" y="158" />
              <mxPoint x="240" y="158" />
            </Array>
          </mxGeometry>
        </mxCell>
        <mxCell id="8hWymS6KVQaurY-RgzPZ-15" value="" style="group" parent="WIyWlLk6GJQsqaUBKTNV-1" vertex="1" connectable="0">
          <mxGeometry x="10" y="10" width="730" height="1030" as="geometry" />
        </mxCell>
        <mxCell id="8hWymS6KVQaurY-RgzPZ-14" value="UI层" style="verticalAlign=top;align=left;spacingTop=8;spacingLeft=2;spacingRight=12;shape=cube;size=0;direction=south;fontStyle=0;html=1;whiteSpace=wrap;dashed=1;" parent="8hWymS6KVQaurY-RgzPZ-15" vertex="1">
          <mxGeometry width="730" height="1030" as="geometry" />
        </mxCell>
        <mxCell id="Bk6qHILm4hEyCHsgAZPW-0" value="Program" style="swimlane;fontStyle=1;align=center;verticalAlign=top;childLayout=stackLayout;horizontal=1;startSize=26;horizontalStack=0;resizeParent=1;resizeParentMax=0;resizeLast=0;collapsible=1;marginBottom=0;whiteSpace=wrap;html=1;" parent="8hWymS6KVQaurY-RgzPZ-15" vertex="1">
          <mxGeometry x="50" y="50" width="160" height="52" as="geometry">
            <mxRectangle x="560" y="420" width="90" height="30" as="alternateBounds" />
          </mxGeometry>
        </mxCell>
        <mxCell id="Bk6qHILm4hEyCHsgAZPW-3" value="+ Main()" style="text;strokeColor=none;fillColor=none;align=left;verticalAlign=top;spacingLeft=4;spacingRight=4;overflow=hidden;rotatable=0;points=[[0,0.5],[1,0.5]];portConstraint=eastwest;whiteSpace=wrap;html=1;imageAspect=1;" parent="Bk6qHILm4hEyCHsgAZPW-0" vertex="1">
          <mxGeometry y="26" width="160" height="26" as="geometry" />
        </mxCell>
        <mxCell id="Bk6qHILm4hEyCHsgAZPW-21" value="MainWindow" style="swimlane;fontStyle=1;align=center;verticalAlign=top;childLayout=stackLayout;horizontal=1;startSize=26;horizontalStack=0;resizeParent=1;resizeParentMax=0;resizeLast=0;collapsible=1;marginBottom=0;whiteSpace=wrap;html=1;" parent="8hWymS6KVQaurY-RgzPZ-15" vertex="1">
          <mxGeometry x="50" y="140" width="160" height="70" as="geometry">
            <mxRectangle x="560" y="420" width="90" height="30" as="alternateBounds" />
          </mxGeometry>
        </mxCell>
        <mxCell id="Bk6qHILm4hEyCHsgAZPW-23" value="+&amp;nbsp;MainWindow()" style="text;strokeColor=none;fillColor=none;align=left;verticalAlign=top;spacingLeft=4;spacingRight=4;overflow=hidden;rotatable=0;points=[[0,0.5],[1,0.5]];portConstraint=eastwest;whiteSpace=wrap;html=1;imageAspect=1;" parent="Bk6qHILm4hEyCHsgAZPW-21" vertex="1">
          <mxGeometry y="26" width="160" height="44" as="geometry" />
        </mxCell>
        <mxCell id="Bk6qHILm4hEyCHsgAZPW-26" value="Use" style="endArrow=open;endSize=12;dashed=1;html=1;rounded=0;" parent="8hWymS6KVQaurY-RgzPZ-15" source="Bk6qHILm4hEyCHsgAZPW-3" target="Bk6qHILm4hEyCHsgAZPW-21" edge="1">
          <mxGeometry width="160" relative="1" as="geometry">
            <mxPoint x="250" y="240" as="sourcePoint" />
            <mxPoint x="410" y="240" as="targetPoint" />
          </mxGeometry>
        </mxCell>
        <mxCell id="8hWymS6KVQaurY-RgzPZ-17" value="&lt;span style=&quot;font-weight: normal;&quot;&gt;SettingPathPanel&lt;/span&gt;" style="swimlane;fontStyle=1;align=center;verticalAlign=top;childLayout=stackLayout;horizontal=1;startSize=26;horizontalStack=0;resizeParent=1;resizeParentMax=0;resizeLast=0;collapsible=1;marginBottom=0;whiteSpace=wrap;html=1;" parent="8hWymS6KVQaurY-RgzPZ-15" vertex="1">
          <mxGeometry x="550" y="404" width="160" height="278" as="geometry" />
        </mxCell>
        <mxCell id="8hWymS6KVQaurY-RgzPZ-18" value="+ 各种托管的UI控件" style="text;strokeColor=none;fillColor=none;align=left;verticalAlign=top;spacingLeft=4;spacingRight=4;overflow=hidden;rotatable=0;points=[[0,0.5],[1,0.5]];portConstraint=eastwest;whiteSpace=wrap;html=1;" parent="8hWymS6KVQaurY-RgzPZ-17" vertex="1">
          <mxGeometry y="26" width="160" height="26" as="geometry" />
        </mxCell>
        <mxCell id="8hWymS6KVQaurY-RgzPZ-19" value="" style="line;strokeWidth=1;fillColor=none;align=left;verticalAlign=middle;spacingTop=-1;spacingLeft=3;spacingRight=3;rotatable=0;labelPosition=right;points=[];portConstraint=eastwest;strokeColor=inherit;" parent="8hWymS6KVQaurY-RgzPZ-17" vertex="1">
          <mxGeometry y="52" width="160" height="8" as="geometry" />
        </mxCell>
        <mxCell id="8hWymS6KVQaurY-RgzPZ-20" value="+ Init(UIForm, UITextBox, WallpaperFlowLayoutPanel, WallpaperLoader, Action&amp;lt;string&amp;gt;, Func&amp;lt;string&amp;gt;, string, string, string)" style="text;strokeColor=none;fillColor=none;align=left;verticalAlign=top;spacingLeft=4;spacingRight=4;overflow=hidden;rotatable=0;points=[[0,0.5],[1,0.5]];portConstraint=eastwest;whiteSpace=wrap;html=1;" parent="8hWymS6KVQaurY-RgzPZ-17" vertex="1">
          <mxGeometry y="60" width="160" height="100" as="geometry" />
        </mxCell>
        <mxCell id="8hWymS6KVQaurY-RgzPZ-34" value="// 打开目录选择窗口&lt;br&gt;+&amp;nbsp;OpenSelectPathView()" style="text;strokeColor=none;fillColor=none;align=left;verticalAlign=top;spacingLeft=4;spacingRight=4;overflow=hidden;rotatable=0;points=[[0,0.5],[1,0.5]];portConstraint=eastwest;whiteSpace=wrap;html=1;" parent="8hWymS6KVQaurY-RgzPZ-17" vertex="1">
          <mxGeometry y="160" width="160" height="40" as="geometry" />
        </mxCell>
        <mxCell id="8hWymS6KVQaurY-RgzPZ-35" value="+&amp;nbsp;UpdatePath()" style="text;strokeColor=none;fillColor=none;align=left;verticalAlign=top;spacingLeft=4;spacingRight=4;overflow=hidden;rotatable=0;points=[[0,0.5],[1,0.5]];portConstraint=eastwest;whiteSpace=wrap;html=1;" parent="8hWymS6KVQaurY-RgzPZ-17" vertex="1">
          <mxGeometry y="200" width="160" height="26" as="geometry" />
        </mxCell>
        <mxCell id="8hWymS6KVQaurY-RgzPZ-36" value="-&amp;nbsp;DragEnter()" style="text;strokeColor=none;fillColor=none;align=left;verticalAlign=top;spacingLeft=4;spacingRight=4;overflow=hidden;rotatable=0;points=[[0,0.5],[1,0.5]];portConstraint=eastwest;whiteSpace=wrap;html=1;" parent="8hWymS6KVQaurY-RgzPZ-17" vertex="1">
          <mxGeometry y="226" width="160" height="26" as="geometry" />
        </mxCell>
        <mxCell id="8hWymS6KVQaurY-RgzPZ-37" value="-&amp;nbsp;DragDrop()" style="text;strokeColor=none;fillColor=none;align=left;verticalAlign=top;spacingLeft=4;spacingRight=4;overflow=hidden;rotatable=0;points=[[0,0.5],[1,0.5]];portConstraint=eastwest;whiteSpace=wrap;html=1;" parent="8hWymS6KVQaurY-RgzPZ-17" vertex="1">
          <mxGeometry y="252" width="160" height="26" as="geometry" />
        </mxCell>
        <mxCell id="8hWymS6KVQaurY-RgzPZ-33" value="1" style="endArrow=open;html=1;endSize=12;startArrow=diamondThin;startSize=14;startFill=0;edgeStyle=orthogonalEdgeStyle;align=left;verticalAlign=bottom;rounded=0;" parent="8hWymS6KVQaurY-RgzPZ-15" source="Bk6qHILm4hEyCHsgAZPW-21" target="8hWymS6KVQaurY-RgzPZ-17" edge="1">
          <mxGeometry x="-1" y="3" relative="1" as="geometry">
            <mxPoint x="190" y="510" as="sourcePoint" />
            <mxPoint x="350" y="510" as="targetPoint" />
            <Array as="points">
              <mxPoint x="630" y="160" />
            </Array>
          </mxGeometry>
        </mxCell>
        <mxCell id="8hWymS6KVQaurY-RgzPZ-25" value="&lt;span style=&quot;font-weight: normal;&quot;&gt;WallpaperDataGridView&lt;/span&gt;" style="swimlane;fontStyle=1;align=center;verticalAlign=top;childLayout=stackLayout;horizontal=1;startSize=26;horizontalStack=0;resizeParent=1;resizeParentMax=0;resizeLast=0;collapsible=1;marginBottom=0;whiteSpace=wrap;html=1;" parent="8hWymS6KVQaurY-RgzPZ-15" vertex="1">
          <mxGeometry x="360" y="255" width="260" height="86" as="geometry" />
        </mxCell>
        <mxCell id="8hWymS6KVQaurY-RgzPZ-26" value="- 各种托管的UI控件" style="text;strokeColor=none;fillColor=none;align=left;verticalAlign=top;spacingLeft=4;spacingRight=4;overflow=hidden;rotatable=0;points=[[0,0.5],[1,0.5]];portConstraint=eastwest;whiteSpace=wrap;html=1;" parent="8hWymS6KVQaurY-RgzPZ-25" vertex="1">
          <mxGeometry y="26" width="260" height="26" as="geometry" />
        </mxCell>
        <mxCell id="8hWymS6KVQaurY-RgzPZ-27" value="" style="line;strokeWidth=1;fillColor=none;align=left;verticalAlign=middle;spacingTop=-1;spacingLeft=3;spacingRight=3;rotatable=0;labelPosition=right;points=[];portConstraint=eastwest;strokeColor=inherit;" parent="8hWymS6KVQaurY-RgzPZ-25" vertex="1">
          <mxGeometry y="52" width="260" height="8" as="geometry" />
        </mxCell>
        <mxCell id="8hWymS6KVQaurY-RgzPZ-28" value="待更新" style="text;strokeColor=none;fillColor=none;align=left;verticalAlign=top;spacingLeft=4;spacingRight=4;overflow=hidden;rotatable=0;points=[[0,0.5],[1,0.5]];portConstraint=eastwest;whiteSpace=wrap;html=1;" parent="8hWymS6KVQaurY-RgzPZ-25" vertex="1">
          <mxGeometry y="60" width="260" height="26" as="geometry" />
        </mxCell>
        <mxCell id="8hWymS6KVQaurY-RgzPZ-58" value="1" style="endArrow=open;html=1;endSize=12;startArrow=diamondThin;startSize=14;startFill=0;edgeStyle=orthogonalEdgeStyle;align=left;verticalAlign=bottom;rounded=0;" parent="8hWymS6KVQaurY-RgzPZ-15" source="Bk6qHILm4hEyCHsgAZPW-21" target="8hWymS6KVQaurY-RgzPZ-25" edge="1">
          <mxGeometry x="-1" y="3" relative="1" as="geometry">
            <mxPoint x="670" y="610" as="sourcePoint" />
            <mxPoint x="830" y="610" as="targetPoint" />
            <Array as="points">
              <mxPoint x="480" y="190" />
            </Array>
          </mxGeometry>
        </mxCell>
        <mxCell id="8hWymS6KVQaurY-RgzPZ-46" value="&lt;span style=&quot;font-weight: normal;&quot;&gt;WallpaperFlowLayoutPanel&lt;/span&gt;" style="swimlane;fontStyle=1;align=center;verticalAlign=top;childLayout=stackLayout;horizontal=1;startSize=26;horizontalStack=0;resizeParent=1;resizeParentMax=0;resizeLast=0;collapsible=1;marginBottom=0;whiteSpace=wrap;html=1;" parent="8hWymS6KVQaurY-RgzPZ-15" vertex="1">
          <mxGeometry x="10" y="255" width="340" height="158" as="geometry" />
        </mxCell>
        <mxCell id="8hWymS6KVQaurY-RgzPZ-47" value="- 各种托管的UI控件" style="text;strokeColor=none;fillColor=none;align=left;verticalAlign=top;spacingLeft=4;spacingRight=4;overflow=hidden;rotatable=0;points=[[0,0.5],[1,0.5]];portConstraint=eastwest;whiteSpace=wrap;html=1;" parent="8hWymS6KVQaurY-RgzPZ-46" vertex="1">
          <mxGeometry y="26" width="340" height="26" as="geometry" />
        </mxCell>
        <mxCell id="8hWymS6KVQaurY-RgzPZ-48" value="" style="line;strokeWidth=1;fillColor=none;align=left;verticalAlign=middle;spacingTop=-1;spacingLeft=3;spacingRight=3;rotatable=0;labelPosition=right;points=[];portConstraint=eastwest;strokeColor=inherit;" parent="8hWymS6KVQaurY-RgzPZ-46" vertex="1">
          <mxGeometry y="52" width="340" height="8" as="geometry" />
        </mxCell>
        <mxCell id="8hWymS6KVQaurY-RgzPZ-49" value="+ InitPanel(UIFlowLayoutPanel)" style="text;strokeColor=none;fillColor=none;align=left;verticalAlign=top;spacingLeft=4;spacingRight=4;overflow=hidden;rotatable=0;points=[[0,0.5],[1,0.5]];portConstraint=eastwest;whiteSpace=wrap;html=1;" parent="8hWymS6KVQaurY-RgzPZ-46" vertex="1">
          <mxGeometry y="60" width="340" height="26" as="geometry" />
        </mxCell>
        <mxCell id="abGspGLAvowVpq7ZcAHA-0" value="+ SetUnpackBtn(UIButton, WallpaperFlowLayoutPanel)" style="text;strokeColor=none;fillColor=none;align=left;verticalAlign=top;spacingLeft=4;spacingRight=4;overflow=hidden;rotatable=0;points=[[0,0.5],[1,0.5]];portConstraint=eastwest;whiteSpace=wrap;html=1;" parent="8hWymS6KVQaurY-RgzPZ-46" vertex="1">
          <mxGeometry y="86" width="340" height="24" as="geometry" />
        </mxCell>
        <mxCell id="abGspGLAvowVpq7ZcAHA-2" value="+ SetDeleteBtn(UIButton)" style="text;strokeColor=none;fillColor=none;align=left;verticalAlign=top;spacingLeft=4;spacingRight=4;overflow=hidden;rotatable=0;points=[[0,0.5],[1,0.5]];portConstraint=eastwest;whiteSpace=wrap;html=1;" parent="8hWymS6KVQaurY-RgzPZ-46" vertex="1">
          <mxGeometry y="110" width="340" height="24" as="geometry" />
        </mxCell>
        <mxCell id="abGspGLAvowVpq7ZcAHA-1" value="+ SetToBackupBtn(UIButton, WallpaperFlowLayoutPanel)" style="text;strokeColor=none;fillColor=none;align=left;verticalAlign=top;spacingLeft=4;spacingRight=4;overflow=hidden;rotatable=0;points=[[0,0.5],[1,0.5]];portConstraint=eastwest;whiteSpace=wrap;html=1;" parent="8hWymS6KVQaurY-RgzPZ-46" vertex="1">
          <mxGeometry y="134" width="340" height="24" as="geometry" />
        </mxCell>
        <mxCell id="8hWymS6KVQaurY-RgzPZ-57" value="1" style="endArrow=open;html=1;endSize=12;startArrow=diamondThin;startSize=14;startFill=0;edgeStyle=orthogonalEdgeStyle;align=left;verticalAlign=bottom;rounded=0;" parent="8hWymS6KVQaurY-RgzPZ-15" source="Bk6qHILm4hEyCHsgAZPW-21" target="8hWymS6KVQaurY-RgzPZ-46" edge="1">
          <mxGeometry x="-1" y="3" relative="1" as="geometry">
            <mxPoint x="-20" y="840" as="sourcePoint" />
            <mxPoint x="140" y="840" as="targetPoint" />
            <Array as="points">
              <mxPoint x="130" y="240" />
              <mxPoint x="130" y="240" />
            </Array>
          </mxGeometry>
        </mxCell>
        <mxCell id="8hWymS6KVQaurY-RgzPZ-21" value="&lt;span style=&quot;font-weight: normal;&quot;&gt;WallpaperFlowPanelBase&lt;/span&gt;" style="swimlane;fontStyle=1;align=center;verticalAlign=top;childLayout=stackLayout;horizontal=1;startSize=26;horizontalStack=0;resizeParent=1;resizeParentMax=0;resizeLast=0;collapsible=1;marginBottom=0;whiteSpace=wrap;html=1;" parent="8hWymS6KVQaurY-RgzPZ-15" vertex="1">
          <mxGeometry x="48.75" y="490" width="262.5" height="530" as="geometry" />
        </mxCell>
        <mxCell id="8hWymS6KVQaurY-RgzPZ-22" value="- 各种托管的UI控件" style="text;strokeColor=none;fillColor=none;align=left;verticalAlign=top;spacingLeft=4;spacingRight=4;overflow=hidden;rotatable=0;points=[[0,0.5],[1,0.5]];portConstraint=eastwest;whiteSpace=wrap;html=1;" parent="8hWymS6KVQaurY-RgzPZ-21" vertex="1">
          <mxGeometry y="26" width="262.5" height="28" as="geometry" />
        </mxCell>
        <mxCell id="8hWymS6KVQaurY-RgzPZ-76" value="// 用于预览的壁纸列表&lt;br&gt;- m_WallpaperList: List&amp;lt;Wallpaper&amp;gt;" style="text;strokeColor=none;fillColor=none;align=left;verticalAlign=top;spacingLeft=4;spacingRight=4;overflow=hidden;rotatable=0;points=[[0,0.5],[1,0.5]];portConstraint=eastwest;whiteSpace=wrap;html=1;" parent="8hWymS6KVQaurY-RgzPZ-21" vertex="1">
          <mxGeometry y="54" width="262.5" height="36" as="geometry" />
        </mxCell>
        <mxCell id="8hWymS6KVQaurY-RgzPZ-77" value="// 勾选中的预览壁纸下标列表&lt;br&gt;- m_SelectedList: List&amp;lt;int&amp;gt;" style="text;strokeColor=none;fillColor=none;align=left;verticalAlign=top;spacingLeft=4;spacingRight=4;overflow=hidden;rotatable=0;points=[[0,0.5],[1,0.5]];portConstraint=eastwest;whiteSpace=wrap;html=1;" parent="8hWymS6KVQaurY-RgzPZ-21" vertex="1">
          <mxGeometry y="90" width="262.5" height="36" as="geometry" />
        </mxCell>
        <mxCell id="8hWymS6KVQaurY-RgzPZ-79" value="+ isInited: bool" style="text;strokeColor=none;fillColor=none;align=left;verticalAlign=top;spacingLeft=4;spacingRight=4;overflow=hidden;rotatable=0;points=[[0,0.5],[1,0.5]];portConstraint=eastwest;whiteSpace=wrap;html=1;" parent="8hWymS6KVQaurY-RgzPZ-21" vertex="1">
          <mxGeometry y="126" width="262.5" height="26" as="geometry" />
        </mxCell>
        <mxCell id="8hWymS6KVQaurY-RgzPZ-80" value="+ panelUpdateState: VieweUpdateState" style="text;strokeColor=none;fillColor=none;align=left;verticalAlign=top;spacingLeft=4;spacingRight=4;overflow=hidden;rotatable=0;points=[[0,0.5],[1,0.5]];portConstraint=eastwest;whiteSpace=wrap;html=1;" parent="8hWymS6KVQaurY-RgzPZ-21" vertex="1">
          <mxGeometry y="152" width="262.5" height="26" as="geometry" />
        </mxCell>
        <mxCell id="8hWymS6KVQaurY-RgzPZ-23" value="" style="line;strokeWidth=1;fillColor=none;align=left;verticalAlign=middle;spacingTop=-1;spacingLeft=3;spacingRight=3;rotatable=0;labelPosition=right;points=[];portConstraint=eastwest;strokeColor=inherit;" parent="8hWymS6KVQaurY-RgzPZ-21" vertex="1">
          <mxGeometry y="178" width="262.5" height="8" as="geometry" />
        </mxCell>
        <mxCell id="8hWymS6KVQaurY-RgzPZ-24" value="+ Init(...)" style="text;strokeColor=none;fillColor=none;align=left;verticalAlign=top;spacingLeft=4;spacingRight=4;overflow=hidden;rotatable=0;points=[[0,0.5],[1,0.5]];portConstraint=eastwest;whiteSpace=wrap;html=1;" parent="8hWymS6KVQaurY-RgzPZ-21" vertex="1">
          <mxGeometry y="186" width="262.5" height="26" as="geometry" />
        </mxCell>
        <mxCell id="8hWymS6KVQaurY-RgzPZ-81" value="+ WaitForReload()" style="text;strokeColor=none;fillColor=none;align=left;verticalAlign=top;spacingLeft=4;spacingRight=4;overflow=hidden;rotatable=0;points=[[0,0.5],[1,0.5]];portConstraint=eastwest;whiteSpace=wrap;html=1;" parent="8hWymS6KVQaurY-RgzPZ-21" vertex="1">
          <mxGeometry y="212" width="262.5" height="26" as="geometry" />
        </mxCell>
        <mxCell id="8hWymS6KVQaurY-RgzPZ-82" value="+ UpdatePanel()" style="text;strokeColor=none;fillColor=none;align=left;verticalAlign=top;spacingLeft=4;spacingRight=4;overflow=hidden;rotatable=0;points=[[0,0.5],[1,0.5]];portConstraint=eastwest;whiteSpace=wrap;html=1;" parent="8hWymS6KVQaurY-RgzPZ-21" vertex="1">
          <mxGeometry y="238" width="262.5" height="26" as="geometry" />
        </mxCell>
        <mxCell id="8hWymS6KVQaurY-RgzPZ-83" value="+ SelectAll()" style="text;strokeColor=none;fillColor=none;align=left;verticalAlign=top;spacingLeft=4;spacingRight=4;overflow=hidden;rotatable=0;points=[[0,0.5],[1,0.5]];portConstraint=eastwest;whiteSpace=wrap;html=1;" parent="8hWymS6KVQaurY-RgzPZ-21" vertex="1">
          <mxGeometry y="264" width="262.5" height="26" as="geometry" />
        </mxCell>
        <mxCell id="8hWymS6KVQaurY-RgzPZ-84" value="+ SetSelectAllBtn(UIButton)" style="text;strokeColor=none;fillColor=none;align=left;verticalAlign=top;spacingLeft=4;spacingRight=4;overflow=hidden;rotatable=0;points=[[0,0.5],[1,0.5]];portConstraint=eastwest;whiteSpace=wrap;html=1;" parent="8hWymS6KVQaurY-RgzPZ-21" vertex="1">
          <mxGeometry y="290" width="262.5" height="26" as="geometry" />
        </mxCell>
        <mxCell id="8hWymS6KVQaurY-RgzPZ-85" value="+ SetReloadBtn(UIButton)" style="text;strokeColor=none;fillColor=none;align=left;verticalAlign=top;spacingLeft=4;spacingRight=4;overflow=hidden;rotatable=0;points=[[0,0.5],[1,0.5]];portConstraint=eastwest;whiteSpace=wrap;html=1;" parent="8hWymS6KVQaurY-RgzPZ-21" vertex="1">
          <mxGeometry y="316" width="262.5" height="26" as="geometry" />
        </mxCell>
        <mxCell id="1sA1s2NOpb4-gXGsQPbu-0" value="- LoadProgressWorker_DoWork(object, DoWorkEventArgs)" style="text;strokeColor=none;fillColor=none;align=left;verticalAlign=top;spacingLeft=4;spacingRight=4;overflow=hidden;rotatable=0;points=[[0,0.5],[1,0.5]];portConstraint=eastwest;whiteSpace=wrap;html=1;" parent="8hWymS6KVQaurY-RgzPZ-21" vertex="1">
          <mxGeometry y="342" width="262.5" height="38" as="geometry" />
        </mxCell>
        <mxCell id="1sA1s2NOpb4-gXGsQPbu-1" value="- LoadProgressWorker_ProgressChanged&lt;br&gt;(object, ProgressChangedEventArgs)" style="text;strokeColor=none;fillColor=none;align=left;verticalAlign=top;spacingLeft=4;spacingRight=4;overflow=hidden;rotatable=0;points=[[0,0.5],[1,0.5]];portConstraint=eastwest;whiteSpace=wrap;html=1;" parent="8hWymS6KVQaurY-RgzPZ-21" vertex="1">
          <mxGeometry y="380" width="262.5" height="50" as="geometry" />
        </mxCell>
        <mxCell id="1sA1s2NOpb4-gXGsQPbu-2" value="- AfterUpdateStateChanged()" style="text;strokeColor=none;fillColor=none;align=left;verticalAlign=top;spacingLeft=4;spacingRight=4;overflow=hidden;rotatable=0;points=[[0,0.5],[1,0.5]];portConstraint=eastwest;whiteSpace=wrap;html=1;" parent="8hWymS6KVQaurY-RgzPZ-21" vertex="1">
          <mxGeometry y="430" width="262.5" height="26" as="geometry" />
        </mxCell>
        <mxCell id="1sA1s2NOpb4-gXGsQPbu-3" value="- OnSwitchValueChanged(object, bool)" style="text;strokeColor=none;fillColor=none;align=left;verticalAlign=top;spacingLeft=4;spacingRight=4;overflow=hidden;rotatable=0;points=[[0,0.5],[1,0.5]];portConstraint=eastwest;whiteSpace=wrap;html=1;" parent="8hWymS6KVQaurY-RgzPZ-21" vertex="1">
          <mxGeometry y="456" width="262.5" height="24" as="geometry" />
        </mxCell>
        <mxCell id="1sA1s2NOpb4-gXGsQPbu-4" value="- UpdateSelectRange(int, int, bool)" style="text;strokeColor=none;fillColor=none;align=left;verticalAlign=top;spacingLeft=4;spacingRight=4;overflow=hidden;rotatable=0;points=[[0,0.5],[1,0.5]];portConstraint=eastwest;whiteSpace=wrap;html=1;" parent="8hWymS6KVQaurY-RgzPZ-21" vertex="1">
          <mxGeometry y="480" width="262.5" height="24" as="geometry" />
        </mxCell>
        <mxCell id="1sA1s2NOpb4-gXGsQPbu-5" value="- AfterUpdateSelectRange()" style="text;strokeColor=none;fillColor=none;align=left;verticalAlign=top;spacingLeft=4;spacingRight=4;overflow=hidden;rotatable=0;points=[[0,0.5],[1,0.5]];portConstraint=eastwest;whiteSpace=wrap;html=1;" parent="8hWymS6KVQaurY-RgzPZ-21" vertex="1">
          <mxGeometry y="504" width="262.5" height="26" as="geometry" />
        </mxCell>
        <mxCell id="8hWymS6KVQaurY-RgzPZ-45" value="Extends" style="endArrow=block;endSize=16;endFill=0;html=1;rounded=0;" parent="8hWymS6KVQaurY-RgzPZ-15" source="8hWymS6KVQaurY-RgzPZ-25" target="8hWymS6KVQaurY-RgzPZ-21" edge="1">
          <mxGeometry width="160" relative="1" as="geometry">
            <mxPoint x="10" y="980" as="sourcePoint" />
            <mxPoint x="170" y="980" as="targetPoint" />
          </mxGeometry>
        </mxCell>
        <mxCell id="8hWymS6KVQaurY-RgzPZ-50" value="Extends" style="endArrow=block;endSize=16;endFill=0;html=1;rounded=0;" parent="8hWymS6KVQaurY-RgzPZ-15" source="8hWymS6KVQaurY-RgzPZ-46" target="8hWymS6KVQaurY-RgzPZ-21" edge="1">
          <mxGeometry width="160" relative="1" as="geometry">
            <mxPoint x="180" y="850" as="sourcePoint" />
            <mxPoint x="340" y="850" as="targetPoint" />
          </mxGeometry>
        </mxCell>
        <mxCell id="Bk6qHILm4hEyCHsgAZPW-16" value="Use" style="endArrow=open;endSize=12;dashed=1;html=1;rounded=0;" parent="WIyWlLk6GJQsqaUBKTNV-1" source="8hWymS6KVQaurY-RgzPZ-14" target="zkfFHV4jXpPFQw0GAbJ--6" edge="1">
          <mxGeometry width="160" relative="1" as="geometry">
            <mxPoint x="220" y="140" as="sourcePoint" />
            <mxPoint x="380" y="140" as="targetPoint" />
          </mxGeometry>
        </mxCell>
        <mxCell id="Bk6qHILm4hEyCHsgAZPW-14" value="Use" style="endArrow=open;endSize=12;dashed=1;html=1;rounded=0;" parent="WIyWlLk6GJQsqaUBKTNV-1" source="8hWymS6KVQaurY-RgzPZ-14" target="zkfFHV4jXpPFQw0GAbJ--13" edge="1">
          <mxGeometry width="160" relative="1" as="geometry">
            <mxPoint x="440" y="360" as="sourcePoint" />
            <mxPoint x="600" y="360" as="targetPoint" />
          </mxGeometry>
        </mxCell>
        <mxCell id="Bk6qHILm4hEyCHsgAZPW-81" value="Use" style="endArrow=open;endSize=12;dashed=1;html=1;rounded=0;jumpStyle=arc;" parent="WIyWlLk6GJQsqaUBKTNV-1" target="Bk6qHILm4hEyCHsgAZPW-30" edge="1">
          <mxGeometry width="160" relative="1" as="geometry">
            <mxPoint x="827.3262350936966" y="320" as="sourcePoint" />
            <mxPoint x="444" y="1193.8349514563106" as="targetPoint" />
          </mxGeometry>
        </mxCell>
        <mxCell id="Bk6qHILm4hEyCHsgAZPW-80" value="Use" style="endArrow=open;endSize=12;dashed=1;html=1;rounded=0;startArrow=open;startFill=0;endFill=0;curved=0;startSize=12;" parent="WIyWlLk6GJQsqaUBKTNV-1" source="zkfFHV4jXpPFQw0GAbJ--13" target="zkfFHV4jXpPFQw0GAbJ--6" edge="1">
          <mxGeometry width="160" relative="1" as="geometry">
            <mxPoint x="620" y="380" as="sourcePoint" />
            <mxPoint x="432" y="322" as="targetPoint" />
          </mxGeometry>
        </mxCell>
        <mxCell id="8hWymS6KVQaurY-RgzPZ-51" value="Use" style="endArrow=open;endSize=12;dashed=1;html=1;rounded=0;" parent="WIyWlLk6GJQsqaUBKTNV-1" source="8hWymS6KVQaurY-RgzPZ-14" target="8hWymS6KVQaurY-RgzPZ-31" edge="1">
          <mxGeometry width="160" relative="1" as="geometry">
            <mxPoint x="150" y="1030" as="sourcePoint" />
            <mxPoint x="1430" y="770" as="targetPoint" />
          </mxGeometry>
        </mxCell>
        <mxCell id="8hWymS6KVQaurY-RgzPZ-61" value="Use" style="endArrow=open;endSize=12;dashed=1;html=1;rounded=0;" parent="WIyWlLk6GJQsqaUBKTNV-1" source="Bk6qHILm4hEyCHsgAZPW-62" target="Bk6qHILm4hEyCHsgAZPW-45" edge="1">
          <mxGeometry width="160" relative="1" as="geometry">
            <mxPoint x="560" y="900" as="sourcePoint" />
            <mxPoint x="720" y="900" as="targetPoint" />
          </mxGeometry>
        </mxCell>
        <mxCell id="Bk6qHILm4hEyCHsgAZPW-86" value="1" style="endArrow=open;html=1;endSize=12;startArrow=diamondThin;startSize=14;startFill=0;edgeStyle=orthogonalEdgeStyle;align=left;verticalAlign=bottom;rounded=0;jumpStyle=arc;" parent="WIyWlLk6GJQsqaUBKTNV-1" source="Bk6qHILm4hEyCHsgAZPW-62" target="Bk6qHILm4hEyCHsgAZPW-50" edge="1">
          <mxGeometry x="-1" y="3" relative="1" as="geometry">
            <mxPoint x="1660" y="350" as="sourcePoint" />
            <mxPoint x="1820" y="350" as="targetPoint" />
            <Array as="points">
              <mxPoint x="920" y="740" />
              <mxPoint x="920" y="1350" />
            </Array>
          </mxGeometry>
        </mxCell>
      </root>
    </mxGraphModel>
  </diagram>
</mxfile>
